<svg width="80" height="24" viewBox="0 0 80 24" fill="none" xmlns="http://www.w3.org/2000/svg">
<g id="Logo Isatnet">
<path id="Vector" d="M18.501 9.15161C18.501 9.15161 15.8837 9.03028 15.0173 9.03028C14.1508 9.03028 13.3025 9.11694 13.0136 9.44625C12.7068 9.81023 12.6165 10.0875 12.6346 10.3995C12.6707 11.0061 12.9775 11.2661 13.3205 11.3875C14.1328 11.6648 15.2519 11.6301 16.6599 11.8728C18.0678 12.1154 18.4288 12.2541 18.9523 12.7394C19.548 13.294 19.8007 14.2819 19.8007 15.5298C19.8007 18.251 17.6707 19.4816 14.1689 19.4816C13.0136 19.4816 9.69233 19.3082 9.69233 19.3082L9.80063 16.5004C9.80063 16.5004 13.4649 16.6044 14.3133 16.6044C15.1617 16.6044 15.7393 16.5178 16.0462 16.3618C16.353 16.2058 16.696 15.8245 16.696 15.5125C16.696 15.2005 16.6057 14.8192 16.0823 14.5939C15.7573 14.4552 14.7285 14.3513 13.3205 14.2646C11.9126 14.1779 11.1364 13.7966 10.4866 13.2767C9.81869 12.7567 9.49377 11.8381 9.49377 10.5035C9.49377 9.16894 9.96309 8.16367 10.9017 7.48772C11.8404 6.81177 13.0497 6.46512 14.548 6.46512H18.5732L18.5191 9.16894L18.501 9.15161Z" fill="#595959"/>
<path id="Vector_2" d="M31.823 10.6423V15.8766C31.8591 16.2753 31.9313 16.5526 32.0396 16.7259C32.1479 16.8992 32.3645 17.0032 32.6894 17.0725V19.6204C31.805 19.6204 30.9746 19.5684 30.4512 19.447C29.9096 19.3257 29.3862 19.1004 28.8446 18.7364C27.5811 19.3257 26.2995 19.6204 24.9999 19.6204C22.2923 19.6204 20.9385 18.2511 20.9385 15.4953C20.9385 14.1607 21.4439 13.2768 22.202 12.7222C22.9601 12.1675 23.971 11.7516 25.5233 11.6649L28.3212 11.4569V10.677C28.3212 10.157 28.1948 9.79304 27.9602 9.60239C27.7075 9.41173 27.3284 9.30774 26.7869 9.30774L21.8591 9.18642V6.46527C23.4656 6.46527 25.415 6.44794 27.0937 6.44794C28.7724 6.44794 29.9999 6.77725 30.74 7.4532C31.48 8.12916 31.8591 9.20375 31.8591 10.677L31.823 10.6423ZM25.8302 13.9181C24.8555 14.0048 23.7905 14.6287 23.7905 15.5646C23.7905 16.5006 24.5306 16.9859 25.3789 16.9859C26.0468 16.9859 27.1298 16.7606 27.9241 16.5526L28.3212 16.4486V13.7621L25.8302 13.9181Z" fill="#595959"/>
<path id="Vector_3" d="M40.9041 10.1746L37.3482 10.1399V14.733C37.3482 15.2356 37.3843 15.5996 37.4023 15.8075C37.4204 16.0155 37.4926 16.4315 37.655 16.6048C37.8716 16.8475 38.1965 16.9861 38.5575 16.9861L40.5792 17.1075L40.6153 19.6033C40.6153 19.6033 38.4131 19.6899 37.7994 19.6899C36.229 19.6899 35.2904 19.2566 34.7308 18.5807C34.1532 17.9047 33.8644 16.6395 33.8644 14.8196V3.22441H37.3843L37.3301 6.7255H40.8861V10.1746H40.9041Z" fill="#595959"/>
<g id="Group">
<path id="Vector_4" d="M61.4802 9.60188C60.6498 9.60188 60.0722 9.80987 59.7293 10.2258C59.3863 10.6418 59.2058 11.3351 59.1877 12.3057H63.7184C63.7184 11.3004 63.556 10.6071 63.213 10.2085C62.8881 9.80986 62.2925 9.61921 61.4802 9.61921V9.60188Z" fill="#00C7A8"/>
<path id="Vector_5" d="M75.7942 0H47.0576C44.7471 0 42.8699 1.80254 42.8699 4.02106V6.82887C42.8699 6.82887 46.2995 6.55155 48.8446 6.55155C50.5955 6.55155 52.5811 7.3315 53.249 8.31943C53.9169 9.30737 54.2418 10.8326 54.2418 12.8951V19.7067H50.7399V12.9991C50.7399 11.9245 50.6136 11.2139 50.3428 10.7113C50.0721 10.1913 49.5667 9.94866 48.7724 9.94866C48.0504 9.94866 46.4078 10.2433 46.4078 10.2433V19.724H42.8879C42.8879 21.9598 44.7652 23.7624 47.0757 23.7624H75.8123C78.1227 23.7624 80 21.9598 80 19.7413V4.02106C80 1.80254 78.1227 0 75.8123 0H75.7942ZM66.9133 14.8537H59.2237C59.2237 15.6336 59.4584 16.1882 59.8736 16.5175C60.2887 16.8642 60.8664 17.0375 61.6425 17.0375C63.2671 17.0375 64.7111 16.9855 65.9927 16.8815L66.7328 16.8122L66.787 19.308C64.7833 19.776 62.9602 20.0186 61.3357 20.0186C59.3681 20.0186 57.9241 19.516 57.0396 18.5107C56.1551 17.5055 55.7039 15.8763 55.7039 13.6057C55.7039 9.09938 57.6353 6.8462 61.4981 6.8462C65.361 6.8462 67.2021 8.7354 67.2021 12.5311L66.9314 14.871L66.9133 14.8537ZM72.0758 15.1483C72.0758 15.6509 72.0758 16.0149 72.1119 16.2229C72.1299 16.4309 72.2021 16.8469 72.3646 17.0202C72.5812 17.2628 72.9061 17.4015 73.2671 17.4015L75.2888 17.5228L75.3249 20.0186C75.3249 20.0186 73.1227 20.1053 72.509 20.1053C70.9386 20.1053 70 19.672 69.4404 18.996C68.8628 18.3201 68.574 17.0548 68.574 15.235V3.63975H72.0938L72.0397 7.14085H75.5957V10.5899L72.0397 10.5553V15.1483H72.0758Z" fill="#00C7A8"/>
</g>
<path id="Vector_6" d="M4.16969 2.08019H0V6.08392H4.16969V2.08019Z" fill="#F2DE00"/>
<path id="Vector_7" d="M7.76163 6.0842H4.16956V19.2913H7.76163V6.0842Z" fill="#595959"/>
</g>
</svg>
