<svg width="48" height="48" viewBox="0 0 48 48" fill="none" xmlns="http://www.w3.org/2000/svg">
<g id="infinity-line">
<path id="Vector" d="M3.81818 24C3.81818 20.134 6.80973 17 10.5 17C12.7976 17 14.3556 17.8676 15.6529 19.2267C17.0396 20.6794 18.1079 22.6644 19.3311 24.9712L19.3954 25.0924C20.5428 27.2566 21.8459 29.7146 23.6471 31.6018C25.5715 33.6176 28.0703 35 31.5 35C37.2991 35 42 30.0752 42 24C42 17.9249 37.2991 13 31.5 13C28.3298 13 25.4879 14.4718 23.5626 16.7987C24.4148 18.1081 25.1187 19.4115 25.704 20.5148C26.8573 18.4144 29.0209 17 31.5 17C35.1903 17 38.1818 20.134 38.1818 24C38.1818 27.866 35.1903 31 31.5 31C29.2024 31 27.6444 30.1324 26.3472 28.7732C24.9604 27.3206 23.8921 25.3356 22.6689 23.0288L22.6046 22.9076C21.4572 20.7434 20.1541 18.2853 18.3529 16.3983C16.4285 14.3824 13.9297 13 10.5 13C4.701 13 0 17.9249 0 24C0 30.0752 4.701 35 10.5 35C13.6702 35 16.5122 33.5282 18.4374 31.2012C17.5852 29.8918 16.8814 28.5884 16.2961 27.4852C15.1428 29.5856 12.9791 31 10.5 31C6.80973 31 3.81818 27.866 3.81818 24Z" fill="#00C7A8"/>
</g>
</svg>
