<svg width="48" height="48" viewBox="0 0 48 48" fill="none" xmlns="http://www.w3.org/2000/svg">
<g id="Icon / Footer / Customer Service">
<path id="Vector" d="M40.3636 16.7273C42.372 16.7273 44 18.3553 44 20.3636V27.6364C44 29.6447 42.372 31.2727 40.3636 31.2727H38.4329C37.5382 38.4478 31.4175 44 24 44V40.3636C30.0249 40.3636 34.9091 35.4795 34.9091 29.4545V18.5455C34.9091 12.5205 30.0249 7.63636 24 7.63636C17.9751 7.63636 13.0909 12.5205 13.0909 18.5455V31.2727H7.63636C5.62805 31.2727 4 29.6447 4 27.6364V20.3636C4 18.3553 5.62805 16.7273 7.63636 16.7273H9.56707C10.4618 9.55216 16.5825 4 24 4C31.4175 4 37.5382 9.55216 38.4329 16.7273H40.3636ZM16.2899 30.8816L18.2174 27.7976C19.8938 28.8476 21.876 29.4545 24 29.4545C26.124 29.4545 28.1062 28.8476 29.7825 27.7976L31.7102 30.8816C29.4749 32.2816 26.832 33.0909 24 33.0909C21.168 33.0909 18.5251 32.2816 16.2899 30.8816Z" fill="#00C7A8"/>
</g>
</svg>
