<svg width="32" height="32" viewBox="0 0 32 32" fill="none" xmlns="http://www.w3.org/2000/svg">
<g id="Icon / Footer / Instagram">
<path id="Vector" d="M17.3357 3C18.7988 3.00242 19.5402 3.01017 20.1809 3.02924L20.4332 3.03748C20.7247 3.04784 21.0123 3.06084 21.359 3.07709C22.7424 3.14102 23.6861 3.35985 24.5148 3.68161C25.3717 4.01205 26.0954 4.45839 26.818 5.18101C27.5395 5.90362 27.986 6.62947 28.3175 7.48425C28.6381 8.31195 28.857 9.25666 28.922 10.6401C28.9375 10.9868 28.9499 11.2744 28.9602 11.5659L28.9684 11.8182C28.9874 12.4588 28.9961 13.2003 28.9988 14.6635L28.9999 15.6328C29 15.7512 29 15.8734 29 15.9995L28.9999 16.3663L28.9991 17.3357C28.9966 18.7988 28.989 19.5403 28.9698 20.1809L28.9615 20.4332C28.9512 20.7248 28.9382 21.0124 28.922 21.359C28.858 22.7425 28.6381 23.6861 28.3175 24.5148C27.987 25.3718 27.5395 26.0956 26.818 26.8181C26.0954 27.5397 25.3685 27.986 24.5148 28.3175C23.6861 28.6382 22.7424 28.857 21.359 28.922C21.0123 28.9375 20.7247 28.9501 20.4332 28.9602L20.1809 28.9684C19.5402 28.9875 18.7988 28.9961 17.3357 28.999L16.3663 29C16.2479 29 16.1257 29 15.9996 29H15.6328L14.6634 28.9991C13.2003 28.9967 12.4588 28.989 11.8182 28.9698L11.5659 28.9617C11.2743 28.9513 10.9868 28.9382 10.6401 28.922C9.25663 28.8582 8.3141 28.6382 7.48424 28.3175C6.62837 27.9871 5.9036 27.5397 5.18099 26.8181C4.45839 26.0956 4.01312 25.3686 3.68161 24.5148C3.35985 23.6861 3.1421 22.7425 3.07709 21.359C3.06165 21.0124 3.04905 20.7248 3.03885 20.4332L3.03067 20.1809C3.01165 19.5403 3.00298 18.7988 3.00017 17.3357L3 14.6635C3.00242 13.2003 3.01015 12.4588 3.02923 11.8182L3.03748 11.5659C3.04784 11.2744 3.06084 10.9868 3.07709 10.6401C3.141 9.25557 3.35985 8.31303 3.68161 7.48425C4.01203 6.62839 4.45839 5.90362 5.18099 5.18101C5.9036 4.45839 6.62946 4.01313 7.48424 3.68161C8.31302 3.35985 9.25555 3.1421 10.6401 3.07709C10.9868 3.06166 11.2743 3.04906 11.5659 3.03886L11.8182 3.03068C12.4588 3.01165 13.2003 3.00298 14.6634 3.00017L17.3357 3ZM15.9996 9.49933C12.4076 9.49933 9.49931 12.4108 9.49931 15.9995C9.49931 19.5914 12.4108 22.4998 15.9996 22.4998C19.5915 22.4998 22.4998 19.5883 22.4998 15.9995C22.4998 12.4077 19.5882 9.49933 15.9996 9.49933ZM15.9996 12.0994C18.1536 12.0994 19.8997 13.845 19.8997 15.9995C19.8997 18.1536 18.1541 19.8997 15.9996 19.8997C13.8455 19.8997 12.0994 18.1542 12.0994 15.9995C12.0994 13.8455 13.8449 12.0994 15.9996 12.0994ZM22.8248 7.54926C21.9287 7.54926 21.1997 8.27717 21.1997 9.17321C21.1997 10.0693 21.9276 10.7983 22.8248 10.7983C23.7208 10.7983 24.4498 10.0704 24.4498 9.17321C24.4498 8.27717 23.7196 7.54814 22.8248 7.54926Z" fill="#C8C8C8"/>
</g>
</svg>
