<svg width="24" height="24" viewBox="0 0 24 24" fill="none" xmlns="http://www.w3.org/2000/svg">
<g id="checkbox-circle-line">
<path id="Vector" d="M5.6 12C5.6 8.46538 8.46538 5.6 12 5.6C15.5346 5.6 18.4 8.46538 18.4 12C18.4 15.5346 15.5346 18.4 12 18.4C8.46538 18.4 5.6 15.5346 5.6 12ZM12 4C7.58172 4 4 7.58172 4 12C4 16.4182 7.58172 20 12 20C16.4182 20 20 16.4182 20 12C20 7.58172 16.4182 4 12 4ZM16.3657 9.96569L15.2343 8.83431L11.2 12.8686L8.96569 10.6343L7.83431 11.7657L11.2 15.1314L16.3657 9.96569Z" fill="#2C2C2C"/>
</g>
</svg>
