<svg width="67" height="104" viewBox="0 0 67 104" fill="none" xmlns="http://www.w3.org/2000/svg">
<g id="Image / Homepage / About 01">
<path d="M4.8826 103.984C4.53811 103.791 4.18276 103.62 3.85183 103.408C2.51997 102.556 2.14564 101.237 2.79122 99.6084C4.52726 95.1825 6.27052 90.7593 8.02102 86.3388C14.9706 68.74 21.9274 51.1457 28.8914 33.556C29.1626 32.872 29.0813 32.5653 28.4492 32.1446C26.6494 30.968 25.3287 29.1869 24.725 27.1223C24.1212 25.0577 24.2741 22.8452 25.1562 20.8834C26.0188 18.9087 27.5521 17.3032 29.4844 16.3514C31.4168 15.3995 33.6234 15.1627 35.7136 15.6828C37.8037 16.203 39.6424 17.4466 40.9039 19.1933C42.1654 20.94 42.7684 23.0772 42.6061 25.2261C42.3918 28.1222 41.0708 30.4726 38.643 32.0794C37.8727 32.5897 37.8645 32.9751 38.1683 33.746C45.3186 51.7682 52.4526 69.7976 59.5704 87.8343C61.046 91.5672 62.5189 95.3001 63.9891 99.033C65.0497 101.72 64.556 102.895 61.9194 103.992H60.4899C59.2638 103.33 58.6616 102.233 58.1924 100.963C57.1616 98.1808 56.0223 95.4449 54.9373 92.6764C54.704 92.0657 54.5114 91.8622 53.7953 92.1336C48.5981 94.0145 43.3791 95.833 38.1683 97.6759C36.5408 98.2541 36.4594 98.2595 36.5408 100.01C36.6412 101.953 35.9983 103.338 34.0832 104H32.6646C30.9204 103.186 30.2233 101.829 30.4267 99.9287C30.4592 99.6274 30.3941 99.3153 30.4267 99.0167C30.5162 98.4033 30.2477 98.1401 29.678 97.9311C24.1679 96.0149 18.6678 94.0769 13.1776 92.1173C12.4886 91.8703 12.2607 92.0196 12.0166 92.6601C10.9452 95.5399 9.76519 98.4169 8.68017 101.321C8.22175 102.542 7.57074 103.509 6.31754 103.984H4.8826ZM36.5462 91.6124C36.6954 91.6287 36.7686 91.6586 36.8175 91.6369C41.8384 89.8754 46.8539 88.1084 51.8857 86.3578C52.3984 86.1786 52.2709 85.9235 52.1434 85.6005C51.2835 83.4292 50.4046 81.2877 49.58 79.1136C49.3847 78.5952 49.1569 78.644 48.7663 78.8096C44.8819 80.4381 40.9939 82.0531 37.1023 83.6544C36.7768 83.7901 36.5245 83.896 36.5299 84.3493C36.5598 86.773 36.5462 89.1968 36.5462 91.6124ZM30.4592 91.7536C30.4592 89.1995 30.443 86.7975 30.4592 84.3981C30.4592 83.9123 30.2151 83.782 29.8435 83.63C25.9917 82.0341 22.138 80.4291 18.2826 78.815C17.8432 78.6305 17.6099 78.5979 17.401 79.1543C16.5873 81.3012 15.7274 83.4237 14.8621 85.5462C14.6749 86.0104 14.6966 86.2275 15.2527 86.3985C16.6361 86.83 17.9896 87.3539 19.3568 87.8343L30.4592 91.7536ZM36.5462 77.2924C40.0183 75.8539 43.3276 74.4696 46.664 73.1125C47.1333 72.9225 47.0546 72.7027 46.9136 72.3498C46.1486 70.4499 45.3918 68.5337 44.6567 66.6148C44.4831 66.1615 44.2933 66.0991 43.843 66.3026C41.5843 67.3503 39.3139 68.3754 37.0318 69.3778C36.8735 69.423 36.7364 69.5227 36.6445 69.6593C36.5527 69.7959 36.5121 69.9605 36.5299 70.1242C36.5544 72.4693 36.5462 74.7872 36.5462 77.2924ZM30.4592 77.2761C30.4592 74.7899 30.4403 72.4937 30.4592 70.1948C30.4592 69.6899 30.2477 69.4918 29.8408 69.3127C27.6246 68.3328 25.4058 67.3557 23.2113 66.3271C22.639 66.0556 22.4844 66.2293 22.2945 66.7369C21.752 68.1863 21.1606 69.6194 20.591 71.0579C19.8586 72.8981 19.8559 72.9035 21.676 73.6526C24.5622 74.8442 27.4483 76.033 30.4592 77.2761ZM36.6981 46.5433L36.5408 46.5868C36.5408 51.7962 36.5408 57.0056 36.5408 62.2151C36.5408 62.6928 36.5842 62.9289 37.143 62.6683C38.6367 61.9681 40.1422 61.2895 41.6594 60.6327C42.0554 60.459 42.1449 60.2554 41.9849 59.8591C40.2163 55.4187 38.4559 50.9801 36.7035 46.5433H36.6981ZM30.4104 46.5596H30.2911L29.5668 48.4188C28.0876 52.1481 26.6138 55.8811 25.1454 59.6176C25.0314 59.9107 24.6029 60.2744 25.2023 60.5404L30.4158 62.8909L30.4104 46.5596Z" fill="url(#paint0_linear_330_1329)"/>
<path d="M0 24.5394C0.141053 15.4876 3.29846 7.67069 9.59158 1.14035C10.9506 -0.271023 12.8114 -0.37959 14.1053 0.855365C15.3992 2.09032 15.3693 3.93868 13.9859 5.36906C9.93608 9.54619 7.33745 14.4589 6.47486 20.2184C5.15656 29.0259 7.53547 36.7369 13.5438 43.3053C14.466 44.3122 15.3042 45.3002 14.938 46.7876C14.3413 49.1923 11.5311 49.9713 9.75976 48.1799C5.30748 43.7407 2.21181 38.1237 0.835466 31.9871C0.282186 29.5431 0.00197828 27.0452 0 24.5394Z" fill="url(#paint1_linear_330_1329)"/>
<path d="M67 25.2858C66.8725 33.6346 63.7124 41.4868 57.3867 48.0388C56.0304 49.4394 54.1479 49.5235 52.8812 48.275C51.6144 47.0264 51.6551 45.2188 52.9842 43.8373C58.3198 38.2705 61.0324 31.6614 60.8778 23.9531C60.7286 16.8962 58.1652 10.792 53.2989 5.67307C52.4173 4.74482 51.75 3.77314 52.0457 2.43233C52.146 1.8791 52.4043 1.36679 52.7894 0.957356C53.1745 0.547923 53.6699 0.25891 54.2157 0.125272C55.4093 -0.205859 56.4238 0.141557 57.2646 0.993812C60.8107 4.54612 63.5074 8.85529 65.1527 13.5985C66.3842 17.1405 66.9756 20.7938 67 25.2858Z" fill="url(#paint2_linear_330_1329)"/>
<path d="M54.8125 25.5545C54.7176 30.3044 52.7727 35.2062 48.8856 39.3182C47.4805 40.8055 45.617 40.9467 44.3095 39.6927C43.0482 38.4876 43.0943 36.6203 44.4234 35.1709C50.2039 28.8577 50.1903 20.2863 44.3855 13.9459C43.0753 12.5129 43.059 10.6102 44.3475 9.42411C45.6359 8.23801 47.4506 8.37643 48.7852 9.7281C52.637 13.6365 54.8315 19.0676 54.8125 25.5545Z" fill="url(#paint3_linear_330_1329)"/>
<path d="M12.2065 23.546C12.2824 18.8288 14.2436 13.8971 18.1741 9.77151C19.5303 8.34928 21.3912 8.22986 22.6769 9.44581C23.9627 10.6618 23.9111 12.5318 22.5901 13.9731C16.8314 20.27 16.8178 28.8631 22.5413 35.1247C23.9138 36.6257 23.9654 38.5121 22.6661 39.7199C21.3667 40.9277 19.5303 40.7811 18.09 39.2883C14.2951 35.3473 12.1793 30.0465 12.2065 23.546Z" fill="url(#paint4_linear_330_1329)"/>
</g>
<defs>
<linearGradient id="paint0_linear_330_1329" x1="33.5" y1="0" x2="33.5" y2="104" gradientUnits="userSpaceOnUse">
<stop stop-color="#00C7A8"/>
<stop offset="1" stop-color="#88E6B6"/>
</linearGradient>
<linearGradient id="paint1_linear_330_1329" x1="33.5" y1="0" x2="33.5" y2="104" gradientUnits="userSpaceOnUse">
<stop stop-color="#00C7A8"/>
<stop offset="1" stop-color="#88E6B6"/>
</linearGradient>
<linearGradient id="paint2_linear_330_1329" x1="33.5" y1="0" x2="33.5" y2="104" gradientUnits="userSpaceOnUse">
<stop stop-color="#00C7A8"/>
<stop offset="1" stop-color="#88E6B6"/>
</linearGradient>
<linearGradient id="paint3_linear_330_1329" x1="33.5" y1="0" x2="33.5" y2="104" gradientUnits="userSpaceOnUse">
<stop stop-color="#00C7A8"/>
<stop offset="1" stop-color="#88E6B6"/>
</linearGradient>
<linearGradient id="paint4_linear_330_1329" x1="33.5" y1="0" x2="33.5" y2="104" gradientUnits="userSpaceOnUse">
<stop stop-color="#00C7A8"/>
<stop offset="1" stop-color="#88E6B6"/>
</linearGradient>
</defs>
</svg>
