<svg width="32" height="32" viewBox="0 0 32 32" fill="none" xmlns="http://www.w3.org/2000/svg">
<g id="Icon / Footer / TikTok">
<path id="Vector" d="M21.3333 11.119V20.55C21.3333 25.2169 17.4532 29 12.6667 29C7.8802 29 4 25.2169 4 20.55C4 15.8831 7.8802 12.1 12.6667 12.1C13.3551 12.1 14.0247 12.1782 14.6667 12.3261V16.4378C14.0605 16.157 13.3824 16 12.6667 16C10.0893 16 8 18.0371 8 20.55C8 23.0629 10.0893 25.1 12.6667 25.1C15.244 25.1 17.3333 23.0629 17.3333 20.55V3H21.3333C21.3333 6.58985 24.3181 9.5 28 9.5V13.4C25.4775 13.4 23.1595 12.5463 21.3333 11.119Z" fill="#C8C8C8"/>
</g>
</svg>
