<svg width="48" height="48" viewBox="0 0 48 48" fill="none" xmlns="http://www.w3.org/2000/svg">
<g id="group-3-line">
<path id="Vector" d="M11.7 15.1111C11.7 17.0748 10.0882 18.6667 8.1 18.6667C6.11177 18.6667 4.5 17.0748 4.5 15.1111C4.5 13.1474 6.11177 11.5556 8.1 11.5556C10.0882 11.5556 11.7 13.1474 11.7 15.1111ZM0.9 15.1111C0.9 19.0385 4.12355 22.2222 8.1 22.2222C12.0765 22.2222 15.3 19.0385 15.3 15.1111C15.3 11.1838 12.0765 8 8.1 8C4.12355 8 0.9 11.1838 0.9 15.1111ZM12.6 32C12.6 29.5454 10.5853 27.5556 8.1 27.5556C5.61472 27.5556 3.6 29.5454 3.6 32V36.4444H12.6V32ZM16.2 40H0V32C0 27.5817 3.6265 24 8.1 24C12.5735 24 16.2 27.5817 16.2 32V40ZM31.5 15.1111C31.5 17.0748 29.8883 18.6667 27.9 18.6667C25.9117 18.6667 24.3 17.0748 24.3 15.1111C24.3 13.1474 25.9117 11.5556 27.9 11.5556C29.8883 11.5556 31.5 13.1474 31.5 15.1111ZM20.7 15.1111C20.7 19.0385 23.9236 22.2222 27.9 22.2222C31.8764 22.2222 35.1 19.0385 35.1 15.1111C35.1 11.1838 31.8764 8 27.9 8C23.9236 8 20.7 11.1838 20.7 15.1111ZM32.4 32C32.4 29.5454 30.3853 27.5556 27.9 27.5556C25.4147 27.5556 23.4 29.5454 23.4 32V36.4444H32.4V32ZM19.8 36.4444V32C19.8 27.5817 23.4265 24 27.9 24C32.3735 24 36 27.5817 36 32V40H19.8V36.4444Z" fill="#00C7A8"/>
</g>
</svg>
