<svg width="42" height="42" viewBox="0 0 42 42" fill="none" xmlns="http://www.w3.org/2000/svg">
<g id="timer-flash-fill">
<path id="Vector" d="M5.63718 12.0436C8.20332 10.0495 11.4583 8.85714 15 8.85714C18.5417 8.85714 21.7967 10.0495 24.3628 12.0436L26.7852 9.6905L29.1422 11.9802L26.7198 14.3333C28.7725 16.8261 30 19.9881 30 23.4286C30 31.4762 23.2843 38 15 38C6.71573 38 0 31.4762 0 23.4286C0 19.9881 1.22745 16.8261 3.28017 14.3333L0.857867 11.9802L3.21488 9.6905L5.63718 12.0436ZM16.6667 21.8095V14.516L8.33333 25.0476H13.3333V32.3333L21.6667 21.8095H16.6667ZM8.33333 4H21.6667V7.2381H8.33333V4Z" fill="#00C7A8"/>
</g>
</svg>
