<svg width="48" height="48" viewBox="0 0 48 48" fill="none" xmlns="http://www.w3.org/2000/svg">
<g id="wireless-charging-line">
<path id="Vector" d="M5.72461 10L8.48888 12.8001C5.65925 15.6664 3.90909 19.6262 3.90909 24C3.90909 28.3738 5.65925 32.3336 8.48888 35.1999L5.72461 38C2.18762 34.4172 0 29.4675 0 24C0 18.5325 2.18762 13.5828 5.72461 10ZM37.2753 10C40.8125 13.5828 43 18.5325 43 24C43 29.4675 40.8125 34.4172 37.2753 38L34.5112 35.1999C37.3408 32.3336 39.0909 28.3738 39.0909 24C39.0909 19.6272 37.3416 15.6682 34.5132 12.8021L37.2753 10ZM23.4545 10.1408V22.0202H29.3182L19.5455 37.8592V25.9799H13.6818L23.4545 10.1408ZM11.253 15.6001L14.0172 18.4C12.6023 19.8332 11.7273 21.8131 11.7273 24C11.7273 26.1868 12.6023 28.1667 14.0172 29.5999L11.253 32.3999C9.1308 30.2501 7.81818 27.2803 7.81818 24C7.81818 20.7196 9.1308 17.7498 11.253 15.6001ZM31.7489 15.602C33.8699 17.7516 35.1818 20.7206 35.1818 24C35.1818 27.2803 33.8691 30.2501 31.7469 32.3999L28.9828 29.5999C30.3977 28.1667 31.2727 26.1868 31.2727 24C31.2727 21.814 30.3985 19.835 28.9847 18.402L31.7489 15.602Z" fill="#00C7A8"/>
</g>
</svg>
