<svg width="48" height="48" viewBox="0 0 48 48" fill="none" xmlns="http://www.w3.org/2000/svg">
<g id="lock-2-line">
<path id="Vector" d="M4.66667 18.3333V16.7143C4.66667 11.3492 8.84534 7 14 7C19.1546 7 23.3333 11.3492 23.3333 16.7143V18.3333H26.4444C27.3036 18.3333 28 19.0582 28 19.9524V39.381C28 40.2752 27.3036 41 26.4444 41H1.55556C0.696453 41 0 40.2752 0 39.381V19.9524C0 19.0582 0.696453 18.3333 1.55556 18.3333H4.66667ZM24.8889 21.5714H3.11111V37.7619H24.8889V21.5714ZM12.4444 30.8525C11.5145 30.2926 10.8889 29.2462 10.8889 28.0476C10.8889 26.2592 12.2817 24.8095 14 24.8095C15.7183 24.8095 17.1111 26.2592 17.1111 28.0476C17.1111 29.2462 16.4855 30.2926 15.5556 30.8525V34.5238H12.4444V30.8525ZM7.77778 18.3333H20.2222V16.7143C20.2222 13.1376 17.4364 10.2381 14 10.2381C10.5636 10.2381 7.77778 13.1376 7.77778 16.7143V18.3333Z" fill="#00C7A8"/>
</g>
</svg>
