<svg width="32" height="32" viewBox="0 0 32 32" fill="none" xmlns="http://www.w3.org/2000/svg">
<g id="Icon / Footer / LinkedIn">
<path id="Vector" d="M25.1509 25.1563H21.3007V19.1232C21.3007 17.6845 21.2715 15.8332 19.2944 15.8332C17.287 15.8332 16.9804 17.3987 16.9804 19.017V25.1563H13.1302V12.75H16.8287V14.441H16.8785C17.3953 13.466 18.652 12.4369 20.5294 12.4369C24.4305 12.4369 25.152 15.0045 25.152 18.3465L25.1509 25.1563ZM8.78174 11.0524C7.54241 11.0524 6.54683 10.0493 6.54683 8.81533C6.54683 7.5825 7.5435 6.58042 8.78174 6.58042C10.0167 6.58042 11.0177 7.5825 11.0177 8.81533C11.0177 10.0493 10.0157 11.0524 8.78174 11.0524ZM10.7122 25.1563H6.85125V12.75H10.7122V25.1563ZM27.077 3H4.91858C3.858 3 3 3.8385 3 4.87308V27.127C3 28.1625 3.858 29 4.91858 29H27.0738C28.1333 29 29 28.1625 29 27.127V4.87308C29 3.8385 28.1333 3 27.0738 3H27.077Z" fill="#C8C8C8"/>
</g>
</svg>
