<svg width="124" height="118" viewBox="0 0 124 118" fill="none" xmlns="http://www.w3.org/2000/svg">
<g id="Image / Homepage / About 04">
<path d="M0 78.4501C1.98215 77.9564 1.98215 77.9564 1.98215 76.0335C1.98215 69.745 1.98215 63.4825 1.98215 57.194C1.92995 56.8485 2.00267 56.4956 2.187 56.1998C2.37134 55.904 2.65499 55.685 2.98609 55.5829C9.29292 52.8025 15.5997 49.996 21.8551 47.1636C22.9105 46.6699 23.0135 46.9817 23.0135 47.9692C23.0135 54.8813 23.0135 61.8194 23.0135 68.9394C23.6972 68.7092 24.3676 68.4402 25.0214 68.1339C25.7679 67.7441 25.8966 68.1339 25.8966 68.7316C25.8966 71.3301 25.8966 74.1105 25.8966 76.787V90.0916L30.1183 87.2852C30.5817 86.9734 30.3758 86.4536 30.3758 86.0379V21.386C30.3183 21.0716 30.3564 20.747 30.4851 20.4549C30.6137 20.1627 30.8268 19.9166 31.0965 19.749C41.2561 13.2353 51.4328 6.65228 61.6267 0H61.7812C62.1158 0.181898 61.9356 0.493724 61.9356 0.753578C61.9356 39.4546 61.9356 78.1643 61.9356 116.883C61.9356 117.974 61.4723 118 60.6485 118H1.44156C0.95246 118 0.489101 118 0 118V78.4501ZM58.2545 70.6545C58.0969 70.6854 57.942 70.7288 57.7912 70.7844L47.4943 77.5146C47.2111 77.7225 46.9794 77.8784 46.9794 78.2682C46.9794 81.2306 46.9794 84.1669 46.9794 87.2852L57.7397 80.5549C57.8911 80.4969 58.0215 80.3938 58.1134 80.2592C58.2054 80.1245 58.2546 79.9649 58.2545 79.8014V70.6545ZM58.2545 55.0632L47.3913 62.1572C47.2556 62.2096 47.1388 62.3021 47.0561 62.4227C46.9734 62.5433 46.9288 62.6862 46.928 62.8329C46.928 65.7692 46.928 68.7056 46.928 71.8758L57.8426 64.9637C57.9652 64.8923 58.0675 64.7902 58.1396 64.6673C58.2118 64.5444 58.2513 64.4049 58.2545 64.2621V55.0632ZM46.9537 25.4398L57.7654 18.6056C58.0228 18.4497 58.2545 18.2938 58.2545 17.956V8.62717L47.3398 15.7472C47.2013 15.8268 47.0887 15.9453 47.0156 16.0883C46.9425 16.2313 46.912 16.3926 46.928 16.5527C46.9537 19.4631 46.9537 22.3475 46.9537 25.4398ZM58.2545 24.3224C57.8061 24.3946 57.3868 24.5927 57.0446 24.8941C54.6763 26.4272 52.4368 28.1682 49.9398 29.4675C48.8443 29.8787 47.9332 30.6762 47.3749 31.7127C46.8165 32.7492 46.6486 33.9546 46.9022 35.1064C47.0191 37.0448 47.0191 38.9887 46.9022 40.9271L57.7139 34.0929C57.873 34.0111 58.0044 33.8835 58.0915 33.7262C58.1785 33.5689 58.2174 33.389 58.203 33.2094L58.2545 24.3224ZM58.2545 39.9137C57.6882 39.9137 57.4565 40.1735 57.1733 40.3554C54.5991 42.0445 52.0249 43.9154 49.4507 45.3966C48.552 45.7399 47.8016 46.3915 47.331 47.2371C46.8603 48.0828 46.6994 49.0687 46.8765 50.022C47.0824 52.0749 46.8765 54.1797 46.8765 56.4664L57.7912 49.5803C57.9107 49.5076 58.0092 49.4046 58.077 49.2815C58.1447 49.1584 58.1793 49.0195 58.1773 48.8787L58.2545 39.9137ZM43.7617 33.7811C43.6075 33.767 43.4525 33.767 43.2983 33.7811L34.4945 39.5239C34.3045 39.6297 34.1495 39.7896 34.0489 39.9837C33.9482 40.1777 33.9062 40.3974 33.9282 40.6153C33.9282 43.2138 33.9282 45.5785 33.9282 48.0471C33.9282 48.8527 34.0826 48.9826 34.7777 48.5409C37.5578 46.7479 40.338 44.9808 43.1439 43.3438C43.3517 43.2277 43.5211 43.0525 43.631 42.8399C43.7408 42.6274 43.7863 42.3869 43.7617 42.1484C43.7617 39.368 43.7617 36.6135 43.7617 33.7811ZM43.7617 49.0606L34.2886 55.2451C34.1802 55.302 34.0893 55.3878 34.0258 55.4932C33.9622 55.5985 33.9285 55.7194 33.9282 55.8428V64.6259L43.3241 58.7012C43.4652 58.6226 43.5813 58.5052 43.6588 58.3625C43.7362 58.2199 43.7719 58.058 43.7617 57.8956C43.7617 54.9852 43.7617 52.1009 43.7617 49.0086V49.0606ZM33.9539 95.3147C34.1341 95.3147 34.2371 95.3147 34.2886 95.3147L43.2983 89.6239C43.4443 89.5561 43.5667 89.4455 43.6493 89.3064C43.732 89.1673 43.7712 89.0062 43.7617 88.8443C43.7617 85.9859 43.7617 83.1015 43.7617 80.1652C43.53 80.1652 43.4013 80.1652 43.3241 80.2951C40.3637 82.192 37.4291 84.115 34.4945 86.0379C34.2113 86.2198 33.9539 86.3757 33.9539 86.7915C34.0054 89.5979 34.0054 92.4303 34.0054 95.2627L33.9539 95.3147ZM33.9539 33.6772C37.2232 31.6243 40.235 29.7014 43.2983 27.8044C43.483 27.6844 43.6282 27.5115 43.7153 27.3079C43.8024 27.1043 43.8275 26.8792 43.7874 26.6611C43.7874 24.8681 43.7874 23.0751 43.7874 21.2821C43.9067 20.2543 43.8981 19.2155 43.7617 18.1898L34.443 24.1925C34.3012 24.2655 34.1825 24.3773 34.1006 24.5152C34.0186 24.653 33.9767 24.8113 33.9797 24.972C34.0054 27.7525 33.9797 30.5589 33.9797 33.6252L33.9539 33.6772ZM33.9539 80.0872L43.3498 74.1625C43.4786 74.1107 43.5891 74.0211 43.6671 73.9053C43.7451 73.7896 43.787 73.6529 43.7874 73.5129C43.7874 70.6025 43.7874 67.6921 43.7874 64.7818C43.5815 64.7818 43.5042 64.7818 43.4528 64.7818L34.4173 70.6285C34.2657 70.7218 34.1438 70.8572 34.0663 71.0184C33.9887 71.1797 33.9586 71.36 33.9797 71.538C34.0054 74.2665 33.9797 77.0209 33.9797 80.0352L33.9539 80.0872ZM4.40191 82.6858L11.0176 79.7494C11.1869 79.6808 11.3278 79.5556 11.4168 79.3949C11.5058 79.2341 11.5375 79.0474 11.5067 78.8659C11.5067 76.5012 11.5067 74.1365 11.5067 71.7719C11.5067 70.9923 11.2493 71.0183 10.683 71.3041C8.82956 72.1876 6.95038 73.0711 5.09695 73.9027C4.86802 73.9745 4.6721 74.1266 4.54463 74.3315C4.41715 74.5365 4.36653 74.7807 4.40191 75.02C4.45339 77.4367 4.42765 79.9313 4.42765 82.6338L4.40191 82.6858ZM11.6869 96.484L5.14843 99.4984C4.68507 99.7062 4.65933 100.044 4.65933 100.486C4.65933 102.747 4.65933 105.033 4.65933 107.294C4.65933 107.944 4.65933 108.177 5.45734 107.84C7.33652 106.956 9.26718 106.125 11.1721 105.241C11.4553 105.241 11.7384 104.981 11.7384 104.566L11.6869 96.484ZM13.2572 78.5281C15.5225 77.5146 17.6591 76.5272 19.8215 75.5917C20.2591 75.4098 20.3106 75.124 20.3106 74.7342C20.3106 72.3435 20.3106 69.9269 20.3106 67.5362C20.3106 66.9126 20.1046 66.8606 19.6155 67.0945L13.7463 69.8229C13.597 69.8704 13.4688 69.9691 13.3842 70.1021C13.2995 70.235 13.2637 70.3937 13.283 70.5505L13.2572 78.5281ZM19.8215 52.8284L13.1028 55.9727C12.5879 56.1806 12.7424 56.6483 12.7424 57.0381V62.7549C12.6424 63.3396 12.6424 63.9372 12.7424 64.5219L19.0235 61.7155C19.2319 61.6616 19.4152 61.5361 19.542 61.3607C19.6688 61.1853 19.7312 60.9708 19.7185 60.754C19.7957 58.1815 19.8215 55.6349 19.8215 52.8284ZM10.9662 56.9861L4.2732 60.1044C3.88707 60.2863 3.91281 60.5721 3.91281 60.9099V68.7056L10.58 65.7432C10.9147 65.6133 10.9662 65.3794 10.9662 65.0676V56.9861ZM14.0552 90.9491L20.5937 88.0647C21.0571 87.8569 21.0571 87.571 21.0571 87.2072C21.0571 84.8425 21.0571 82.4779 21.0571 80.1392C21.0571 79.5935 21.0571 79.2557 20.3363 79.5935C18.4314 80.529 16.5007 81.4384 14.5701 82.192C14.3633 82.2633 14.1892 82.4081 14.0803 82.5993C13.9714 82.7905 13.935 83.0152 13.978 83.2314C14.081 85.752 14.0552 88.3506 14.0552 90.9491ZM11.7127 83.3354L4.9425 86.5316C4.83741 86.5883 4.75171 86.6756 4.6966 86.7823C4.64149 86.8889 4.61953 87.0098 4.63359 87.1293V95.1068C6.92464 94.0934 9.0355 93.1059 11.1721 92.1964C11.344 92.1431 11.4921 92.0308 11.5908 91.879C11.6895 91.7272 11.7326 91.5454 11.7127 91.3649V83.3354ZM21.1343 92.3004L14.6215 95.3926C14.3384 95.3926 14.0552 95.6265 14.0552 96.0423C14.0552 98.6408 14.0552 101.239 14.0552 104.072L20.7224 101.109C20.8663 101.043 20.9846 100.931 21.059 100.79C21.1334 100.649 21.1599 100.487 21.1343 100.33V92.3004Z" fill="url(#paint0_linear_330_1336)"/>
<path d="M124 117.558C123.614 117.272 123.151 117.428 122.713 117.428H93.8044C92.8777 117.428 92.5688 117.246 92.5688 116.233C92.5688 102.201 92.5688 88.16 92.5688 74.1105C92.5688 73.0191 92.8005 72.9152 93.7787 73.253C103.458 76.3886 113.145 79.5069 122.842 82.6078C123.202 82.7377 123.562 82.9976 123.974 82.8417L124 117.558ZM108.297 85.4662C108.297 88.0647 108.297 90.6633 108.297 93.2618C108.297 93.8335 108.606 93.9375 108.992 94.0674C111.747 94.8729 114.475 95.6525 117.204 96.484C117.822 96.6659 117.976 96.484 117.951 95.8864C117.951 93.8075 117.951 91.7287 117.951 89.6758C117.951 89.2601 117.951 88.9742 117.462 88.8443L108.297 85.4662ZM117.925 111.27C117.925 108.853 117.925 106.566 117.925 104.306C117.949 104.087 117.89 103.867 117.762 103.689C117.633 103.511 117.444 103.388 117.23 103.344C114.501 102.383 111.798 101.395 109.095 100.356C108.452 100.122 108.246 100.174 108.246 100.902C108.246 103.188 108.246 105.449 108.246 107.736C108.228 107.842 108.231 107.951 108.257 108.056C108.283 108.161 108.33 108.259 108.395 108.345C108.461 108.43 108.543 108.501 108.637 108.553C108.731 108.605 108.834 108.636 108.941 108.645C111.901 109.477 114.81 110.36 117.925 111.27ZM105.852 93.0799C105.852 90.6633 105.852 88.3506 105.852 86.0119C105.852 85.4922 105.594 85.3623 105.182 85.2063C102.608 84.2449 99.8024 83.2574 97.1252 82.244C96.3787 81.9582 96.2242 82.244 96.25 82.8936C96.25 85.0764 96.25 87.2852 96.25 89.4679C96.25 90.1696 96.5331 90.3774 97.1252 90.5334L105.852 93.0799ZM105.852 103.864C105.852 102.824 105.852 101.759 105.852 100.694C105.882 100.501 105.837 100.304 105.727 100.144C105.617 99.9846 105.449 99.8741 105.26 99.8362L96.9965 96.7959C96.5331 96.6399 96.25 96.6399 96.25 97.2896C96.25 99.6283 96.25 101.993 96.25 104.358C96.2277 104.519 96.2692 104.683 96.3654 104.815C96.4617 104.946 96.6051 105.034 96.7648 105.059L105.208 107.658C105.826 107.84 105.852 107.658 105.852 107.06C105.852 105.943 105.852 104.929 105.852 103.942V103.864Z" fill="url(#paint1_linear_330_1336)"/>
<path d="M64.9475 0.363779C65.4053 0.446663 65.8323 0.653201 66.1831 0.961444C74.0087 6.15854 81.8429 11.3556 89.6857 16.5527C89.9699 16.7183 90.2054 16.9572 90.3683 17.2448C90.5311 17.5324 90.6153 17.8585 90.6124 18.1898C90.6124 51.1047 90.6124 83.9417 90.6124 116.701C90.6124 117.818 90.2777 118 89.2738 118C81.5512 118 73.8285 118 66.1059 118C65.2049 118 64.8702 117.844 64.8702 116.831C64.8702 78.2682 64.8702 39.7231 64.8702 1.19531L64.9475 0.363779Z" fill="url(#paint2_linear_330_1336)"/>
</g>
<defs>
<linearGradient id="paint0_linear_330_1336" x1="62" y1="0" x2="62" y2="118" gradientUnits="userSpaceOnUse">
<stop stop-color="#00C7A8"/>
<stop offset="1" stop-color="#88E6B6"/>
</linearGradient>
<linearGradient id="paint1_linear_330_1336" x1="62" y1="0" x2="62" y2="118" gradientUnits="userSpaceOnUse">
<stop stop-color="#00C7A8"/>
<stop offset="1" stop-color="#88E6B6"/>
</linearGradient>
<linearGradient id="paint2_linear_330_1336" x1="62" y1="0" x2="62" y2="118" gradientUnits="userSpaceOnUse">
<stop stop-color="#00C7A8"/>
<stop offset="1" stop-color="#88E6B6"/>
</linearGradient>
</defs>
</svg>
