<svg width="104" height="104" viewBox="0 0 104 104" fill="none" xmlns="http://www.w3.org/2000/svg">
<g id="Image / Homepage / About 02">
<path d="M32.57 103.892C32.9119 101.721 33.6231 99.6616 34.1741 97.5504C35.0127 94.3294 35.8541 91.1057 36.758 87.8983C38.2671 82.5444 42.4226 79.3859 47.9731 79.3072L49.6017 79.2909C50.0737 79.3922 50.5636 79.3735 51.0266 79.2366L49.6261 78.9653C45.647 77.6465 43.1418 74.5856 42.8948 70.7405C42.7712 69.0478 43.1181 67.3539 43.8972 65.8461C44.6762 64.3382 45.8572 63.075 47.3094 62.1961C48.7616 61.3173 50.4286 60.8569 52.1261 60.866C53.8237 60.875 55.4857 61.3531 56.9284 62.2474C58.3712 63.1418 59.5386 64.4175 60.3015 65.9336C61.0644 67.4497 61.3932 69.1472 61.2515 70.8384C61.1098 72.5296 60.5032 74.1488 59.4987 75.5169C58.4941 76.885 57.1308 77.9488 55.5594 78.5908C55.2174 78.7292 54.8645 78.8404 54.5144 78.9653L52.9157 79.2665C53.5807 79.356 54.053 79.4211 54.528 79.3017C56.4849 79.3017 58.4527 79.2637 60.3147 80.01C63.6613 81.3478 66.096 83.6543 67.1002 87.1412C68.6745 92.5683 70.0859 98.047 71.5434 103.504C71.5597 103.636 71.5597 103.769 71.5434 103.9L32.57 103.892Z" fill="url(#paint0_linear_330_1351)"/>
<path d="M14.7104 81.5812C10.7558 80.5636 8.07144 76.827 8.46771 72.8978C8.88299 68.8274 12.1455 65.5902 16.0811 65.3568C20.2773 65.1099 23.9035 67.799 24.8019 71.8449C25.7518 76.1106 23.48 79.7577 18.494 81.782C19.6611 81.8417 20.6871 81.8335 21.6968 81.9584C25.5727 82.4387 28.2761 84.5362 29.9182 88.0476C30.1339 88.5054 30.1688 89.0278 30.0159 89.5102C28.8623 93.7379 27.7468 97.9765 26.6204 102.21C26.4738 102.752 26.3273 103.317 26.482 103.895H2.32544C1.36993 103.401 0.594146 102.618 0.107926 101.659V99.8353C0.555771 99.3713 0.536772 98.7336 0.694196 98.1746C1.43246 95.5153 2.11645 92.8397 2.84114 90.1777C4.36653 84.5715 7.9683 81.8444 13.8174 81.8471H14.7294C15.1175 82.0913 15.5138 81.9801 16.2087 81.8471C15.5138 81.782 15.1691 81.4536 14.7104 81.5812Z" fill="url(#paint1_linear_330_1351)"/>
<path d="M77.626 103.892C77.8187 103.135 77.5581 102.421 77.3708 101.721C76.3041 97.6779 75.2347 93.6374 74.1138 89.6105C73.9344 89.0309 73.9909 88.4039 74.2712 87.8657C76.1711 83.9853 79.3169 82.0098 83.6189 81.8552C84.2425 81.8567 84.8658 81.8269 85.4863 81.7656C83.1277 81.0004 81.244 79.6572 80.0878 77.4511C79.5208 76.4082 79.1916 75.2529 79.1235 74.0679C79.0555 72.8829 79.2504 71.6975 79.6942 70.5966C81.0513 67.0147 84.9543 64.7896 88.6267 65.4408C92.6383 66.1437 95.5072 69.3565 95.6565 73.3102C95.7223 75.1987 95.1365 77.0523 93.9974 78.5603C92.8583 80.0682 91.2351 81.1386 89.4002 81.592C88.947 81.4888 88.586 81.7412 87.9318 81.9664C88.5941 81.9474 88.9958 82.132 89.3839 81.8633C90.969 81.8362 92.5623 81.8009 94.0958 82.2893C97.7953 83.4643 100.127 85.9662 101.153 89.6919C102.019 92.8722 102.849 96.0634 103.701 99.2464C104.364 101.713 103.837 102.885 101.579 103.903L77.626 103.892Z" fill="url(#paint2_linear_330_1351)"/>
<path d="M0.107926 27.8147C0.71591 26.5122 1.75274 25.8067 3.12613 25.4213C4.90395 24.9193 6.65462 24.2789 8.40529 23.7118C8.92049 23.5589 9.36841 23.2355 9.67554 22.7946C10.8725 21.1203 12.102 19.4705 13.3289 17.8179C14.8868 15.7203 17.1288 15.7176 18.703 17.8179C19.9326 19.4569 21.1702 21.1068 22.3645 22.7783C22.6701 23.2184 23.1176 23.5402 23.632 23.6901C25.6541 24.3386 27.6708 25.0007 29.6712 25.709C31.9321 26.523 32.6025 28.607 31.24 30.5717C30.0475 32.2921 28.8307 33.9944 27.5894 35.6786C27.237 36.1253 27.0518 36.681 27.0655 37.2497C27.0872 39.2768 27.0655 41.3038 27.0302 43.3308C26.9895 46.02 25.1873 47.317 22.6224 46.5192C20.6274 45.8978 18.6325 45.2819 16.6511 44.6198C16.2418 44.4753 15.7955 44.4753 15.3863 44.6198C13.3696 45.2792 11.3448 45.9141 9.31998 46.5382C6.87718 47.2926 5.03966 45.9657 5.0098 43.4285C4.98537 41.3336 4.98809 39.2388 4.97723 37.1439C4.97723 36.7776 5.00166 36.4221 4.75738 36.0856C3.1967 33.9555 1.65503 31.7955 0.107926 29.6409V27.8147Z" fill="url(#paint3_linear_330_1351)"/>
<path d="M0.107926 101.659C0.59815 102.619 1.37891 103.401 2.33906 103.892C1.59536 103.892 0.561244 104.182 0.189396 103.811C-0.182452 103.439 0.107926 102.405 0.107926 101.659Z" fill="url(#paint4_linear_330_1351)"/>
<path d="M62.6299 38.555C62.1229 38.5502 61.6212 38.4508 61.1507 38.2619C58.3849 37.3908 55.6164 36.5334 52.8615 35.6325C52.324 35.4527 51.7417 35.4594 51.2085 35.6514C48.4509 36.5496 45.6851 37.4125 42.9193 38.2809C40.3001 39.095 38.4761 37.7816 38.4598 35.0572C38.4435 32.1482 38.411 29.242 38.4245 26.3331C38.4338 25.7634 38.2491 25.2075 37.9007 24.7565C36.1745 22.3631 34.4636 19.9707 32.7681 17.5791C31.221 15.4083 31.9538 13.2374 34.4808 12.4234C37.2303 11.5225 39.9771 10.6053 42.7293 9.70982C43.3068 9.53165 43.8082 9.1659 44.1543 8.67052C45.8696 6.28531 47.6285 3.92722 49.3981 1.56914C50.9642 -0.531155 53.198 -0.523015 54.7641 1.59356C56.5428 3.97607 58.3071 6.36852 60.0569 8.77093C60.3455 9.18216 60.7643 9.48422 61.2457 9.62841C64.0033 10.5212 66.7474 11.4601 69.4942 12.38C72.2871 13.3134 72.944 15.3649 71.2177 17.7854C69.5702 20.0973 67.9281 22.3984 66.2588 24.7049C65.8927 25.183 65.7011 25.7719 65.716 26.3738C65.7287 29.384 65.7142 32.3934 65.6726 35.4018C65.6237 37.2253 64.3453 38.5332 62.6299 38.555Z" fill="url(#paint5_linear_330_1351)"/>
<path d="M104 28.8838C104 29.4265 103.669 30.1049 103.202 30.7507C101.997 32.4169 100.819 34.1047 99.5975 35.7627C99.2737 36.1902 99.1078 36.7165 99.128 37.2524C99.1443 39.2767 99.128 41.3038 99.109 43.3308C99.0818 45.9955 97.2579 47.3116 94.6984 46.5192C92.7034 45.9005 90.7085 45.2818 88.7271 44.6197C88.3179 44.4753 87.8715 44.4753 87.4623 44.6197C85.4456 45.2764 83.4208 45.9087 81.396 46.5382C78.9532 47.2953 77.1374 45.9955 77.0885 43.4312C77.0478 41.3038 77.0424 39.1736 77.0451 37.0462C77.0553 36.6106 76.9165 36.1846 76.6516 35.8387C75.4166 34.1508 74.2088 32.444 72.9982 30.7372C71.4457 28.5473 72.146 26.4416 74.7082 25.5814C76.5918 24.9519 78.4728 24.3142 80.37 23.7226C80.9813 23.54 81.51 23.1505 81.8656 22.6209C83.0191 20.9928 84.2106 19.4026 85.394 17.8043C86.9574 15.704 89.2211 15.6905 90.779 17.7799C92.0276 19.4569 93.2662 21.1429 94.4948 22.838C94.7631 23.2273 95.1554 23.5142 95.6076 23.6521C97.6894 24.325 99.7658 25.0088 101.831 25.7388C103.207 26.2245 103.992 27.3072 104 28.8838Z" fill="url(#paint6_linear_330_1351)"/>
<path d="M54.5144 79.2937C54.0394 79.413 53.5672 79.3479 52.9022 79.2584L54.5009 78.9653L54.5144 79.2937Z" fill="url(#paint7_linear_330_1351)"/>
<path d="M14.7104 81.5812C15.1691 81.4536 15.5247 81.7819 16.2087 81.8525C15.5138 81.9827 15.123 82.094 14.7294 81.8525L14.7104 81.5812Z" fill="url(#paint8_linear_330_1351)"/>
<path d="M89.3867 81.8525C88.9985 82.1239 88.5968 81.9366 87.9346 81.9556C88.586 81.7304 88.9497 81.478 89.4029 81.5812L89.3867 81.8525Z" fill="url(#paint9_linear_330_1351)"/>
<path d="M49.6125 78.9653L51.0131 79.2367C50.553 79.3699 50.0671 79.3867 49.599 79.2855L49.6125 78.9653Z" fill="url(#paint10_linear_330_1351)"/>
</g>
<defs>
<linearGradient id="paint0_linear_330_1351" x1="52" y1="0" x2="52" y2="104" gradientUnits="userSpaceOnUse">
<stop stop-color="#00C7A8"/>
<stop offset="1" stop-color="#88E6B6"/>
</linearGradient>
<linearGradient id="paint1_linear_330_1351" x1="52" y1="0" x2="52" y2="104" gradientUnits="userSpaceOnUse">
<stop stop-color="#00C7A8"/>
<stop offset="1" stop-color="#88E6B6"/>
</linearGradient>
<linearGradient id="paint2_linear_330_1351" x1="52" y1="0" x2="52" y2="104" gradientUnits="userSpaceOnUse">
<stop stop-color="#00C7A8"/>
<stop offset="1" stop-color="#88E6B6"/>
</linearGradient>
<linearGradient id="paint3_linear_330_1351" x1="52" y1="0" x2="52" y2="104" gradientUnits="userSpaceOnUse">
<stop stop-color="#00C7A8"/>
<stop offset="1" stop-color="#88E6B6"/>
</linearGradient>
<linearGradient id="paint4_linear_330_1351" x1="52" y1="0" x2="52" y2="104" gradientUnits="userSpaceOnUse">
<stop stop-color="#00C7A8"/>
<stop offset="1" stop-color="#88E6B6"/>
</linearGradient>
<linearGradient id="paint5_linear_330_1351" x1="52" y1="0" x2="52" y2="104" gradientUnits="userSpaceOnUse">
<stop stop-color="#00C7A8"/>
<stop offset="1" stop-color="#88E6B6"/>
</linearGradient>
<linearGradient id="paint6_linear_330_1351" x1="52" y1="0" x2="52" y2="104" gradientUnits="userSpaceOnUse">
<stop stop-color="#00C7A8"/>
<stop offset="1" stop-color="#88E6B6"/>
</linearGradient>
<linearGradient id="paint7_linear_330_1351" x1="52" y1="0" x2="52" y2="104" gradientUnits="userSpaceOnUse">
<stop stop-color="#00C7A8"/>
<stop offset="1" stop-color="#88E6B6"/>
</linearGradient>
<linearGradient id="paint8_linear_330_1351" x1="52" y1="0" x2="52" y2="104" gradientUnits="userSpaceOnUse">
<stop stop-color="#00C7A8"/>
<stop offset="1" stop-color="#88E6B6"/>
</linearGradient>
<linearGradient id="paint9_linear_330_1351" x1="52" y1="0" x2="52" y2="104" gradientUnits="userSpaceOnUse">
<stop stop-color="#00C7A8"/>
<stop offset="1" stop-color="#88E6B6"/>
</linearGradient>
<linearGradient id="paint10_linear_330_1351" x1="52" y1="0" x2="52" y2="104" gradientUnits="userSpaceOnUse">
<stop stop-color="#00C7A8"/>
<stop offset="1" stop-color="#88E6B6"/>
</linearGradient>
</defs>
</svg>
