<svg width="24" height="24" viewBox="0 0 24 24" fill="none" xmlns="http://www.w3.org/2000/svg">
<g id="Icon / Footer / Phone">
<path id="Vector" d="M20 15.9289V19.0721C20 19.5388 19.6392 19.926 19.1738 19.9588C18.785 19.9863 18.4678 20 18.2222 20C10.3675 20 4 13.6325 4 5.77778C4 5.53219 4.01373 5.215 4.0412 4.82622C4.07411 4.36078 4.46128 4 4.92788 4H8.0712C8.29936 4 8.49045 4.17282 8.51336 4.39982C8.53393 4.60362 8.55305 4.76724 8.57073 4.89068C8.75053 6.14642 9.1178 7.34165 9.64329 8.44714C9.72764 8.62458 9.67263 8.83697 9.51276 8.95116L7.59427 10.3216C8.76224 13.0499 10.9501 15.2378 13.6784 16.4058L15.0463 14.4906C15.162 14.3288 15.3769 14.2732 15.5564 14.3584C16.6619 14.8835 17.857 15.2503 19.1125 15.4297C19.2352 15.4473 19.3978 15.4662 19.6002 15.4867C19.8272 15.5096 20 15.7007 20 15.9289Z" fill="#2C2C2C"/>
</g>
</svg>
