<svg width="101" height="30" viewBox="0 0 101 30" fill="none" xmlns="http://www.w3.org/2000/svg">
<g id="Logo Isatnet">
<path id="Vector" d="M23.3576 11.5539C23.3576 11.5539 20.0532 11.4007 18.9594 11.4007C17.8655 11.4007 16.7944 11.5101 16.4298 11.9259C16.0424 12.3854 15.9284 12.7355 15.9512 13.1294C15.9968 13.8953 16.3842 14.2235 16.8172 14.3767C17.8427 14.7268 19.2556 14.683 21.0332 14.9893C22.8107 15.2957 23.2665 15.4707 23.9274 16.0834C24.6794 16.7837 24.9984 18.0309 24.9984 19.6064C24.9984 23.0419 22.3093 24.5955 17.8883 24.5955C16.4298 24.5955 12.2366 24.3767 12.2366 24.3767L12.3734 20.8318C12.3734 20.8318 16.9995 20.9631 18.0706 20.9631C19.1417 20.9631 19.8709 20.8537 20.2583 20.6567C20.6457 20.4598 21.0787 19.9784 21.0787 19.5845C21.0787 19.1907 20.9648 18.7093 20.3039 18.4248C19.8937 18.2497 18.5947 18.1185 16.8172 18.009C15.0397 17.8996 14.0598 17.4182 13.2394 16.7618C12.3962 16.1053 11.986 14.9456 11.986 13.2607C11.986 11.5758 12.5785 10.3066 13.7635 9.45324C14.9485 8.59985 16.4754 8.16222 18.3669 8.16222H23.4488L23.3804 11.5758L23.3576 11.5539Z" fill="#595959"/>
<path id="Vector_2" d="M40.1765 13.4359V20.0442C40.2221 20.5475 40.3133 20.8976 40.45 21.1164C40.5867 21.3353 40.8602 21.4666 41.2704 21.5541V24.7707C40.1537 24.7707 39.1054 24.7051 38.4446 24.5519C37.7609 24.3987 37.1 24.1143 36.4164 23.6547C34.8211 24.3987 33.2031 24.7707 31.5623 24.7707C28.144 24.7707 26.4348 23.042 26.4348 19.5628C26.4348 17.8779 27.0729 16.762 28.03 16.0617C28.9872 15.3615 30.2634 14.8364 32.2232 14.727L35.7555 14.4644V13.4797C35.7555 12.8232 35.596 12.3637 35.2997 12.123C34.9807 11.8823 34.5021 11.751 33.8184 11.751L27.597 11.5978V8.1624C29.6253 8.1624 32.0865 8.14052 34.2058 8.14052C36.3252 8.14052 37.8748 8.55627 38.8092 9.40966C39.7435 10.2631 40.2221 11.6197 40.2221 13.4797L40.1765 13.4359ZM32.6106 17.5716C31.38 17.681 30.0355 18.4687 30.0355 19.6504C30.0355 20.832 30.9698 21.4447 32.0409 21.4447C32.8841 21.4447 34.2514 21.1602 35.2541 20.8976L35.7555 20.7663V17.3747L32.6106 17.5716Z" fill="#595959"/>
<path id="Vector_3" d="M51.6413 12.8454L47.1519 12.8017V18.6004C47.1519 19.2349 47.1975 19.6944 47.2203 19.957C47.2431 20.2196 47.3342 20.7448 47.5393 20.9636C47.8128 21.2699 48.223 21.445 48.6788 21.445L51.2311 21.5982L51.2767 24.7491C51.2767 24.7491 48.4965 24.8586 47.7216 24.8586C45.739 24.8586 44.554 24.3115 43.8475 23.4581C43.1183 22.6047 42.7537 21.0074 42.7537 18.7098V4.07081H47.1975L47.1291 8.49094H51.6185V12.8454H51.6413Z" fill="#595959"/>
<g id="Group">
<path id="Vector_4" d="M77.6186 12.1224C76.5703 12.1224 75.841 12.385 75.408 12.9101C74.975 13.4353 74.7472 14.3106 74.7244 15.5359H80.4444C80.4444 14.2668 80.2393 13.3915 79.8063 12.8882C79.3961 12.3849 78.6441 12.1443 77.6186 12.1443V12.1224Z" fill="#00C7A8"/>
<path id="Vector_5" d="M95.6901 0H59.4102C56.4932 0 54.1232 2.27571 54.1232 5.07659V8.62144C54.1232 8.62144 58.4531 8.27133 61.6663 8.27133C63.8768 8.27133 66.3836 9.25602 67.2268 10.5033C68.07 11.7505 68.4802 13.6761 68.4802 16.2801V24.8797H64.0591V16.4114C64.0591 15.0547 63.8996 14.1575 63.5578 13.523C63.2159 12.8665 62.5779 12.5602 61.5751 12.5602C60.6636 12.5602 58.5898 12.9322 58.5898 12.9322V24.9015H54.146C54.146 27.7243 56.516 30 59.433 30H95.7129C98.6299 30 101 27.7243 101 24.9234V5.07659C101 2.27571 98.6299 0 95.7129 0H95.6901ZM84.478 18.7527H74.7699C74.7699 19.7374 75.0662 20.4376 75.5903 20.8534C76.1145 21.291 76.8437 21.5098 77.8236 21.5098C79.8746 21.5098 81.6978 21.4442 83.3158 21.3129L84.2501 21.2254L84.3185 24.3764C81.7889 24.9672 79.4872 25.2735 77.4362 25.2735C74.9522 25.2735 73.1291 24.639 72.0125 23.3698C70.8958 22.1007 70.3261 20.0438 70.3261 17.1772C70.3261 11.488 72.7645 8.64333 77.6413 8.64333C82.5182 8.64333 84.8426 11.0284 84.8426 15.8206L84.5008 18.7746L84.478 18.7527ZM90.9956 19.1247C90.9956 19.7593 90.9956 20.2188 91.0412 20.4814C91.064 20.744 91.1551 21.2691 91.3602 21.488C91.6337 21.7943 92.0439 21.9694 92.4997 21.9694L95.0521 22.1225L95.0976 25.2735C95.0976 25.2735 92.3174 25.3829 91.5426 25.3829C89.5599 25.3829 88.3749 24.8359 87.6684 23.9825C86.9392 23.1291 86.5746 21.5317 86.5746 19.2341V4.59519H91.0184L90.9501 9.01532H95.4395V13.3698L90.9501 13.326V19.1247H90.9956Z" fill="#00C7A8"/>
</g>
<path id="Vector_6" d="M5.26424 2.62624H0V7.68094H5.26424V2.62624Z" fill="#F2DE00"/>
<path id="Vector_7" d="M9.79903 7.6813H5.26404V24.3553H9.79903V7.6813Z" fill="#595959"/>
</g>
</svg>
