<svg width="112" height="80" viewBox="0 0 112 80" fill="none" xmlns="http://www.w3.org/2000/svg">
<g id="Image / Homepage / About 03">
<path d="M112 77.4763C111.194 79.4074 109.709 80.0466 107.665 79.9974C103.987 79.9045 100.304 79.951 96.6234 79.9974C95.8533 79.9974 95.5711 79.8554 95.8369 79.0551C96.174 78.0472 96.1986 76.9847 96.1986 75.9331C96.1986 60.0256 96.2041 44.1163 96.2151 28.2052C96.2151 24.5397 94.8448 21.6499 91.9427 19.3473C85.7 14.4008 79.5175 9.37511 73.2858 4.41494C72.6445 3.90418 72.6445 3.66382 73.2858 3.19948C74.2586 2.50025 75.1548 1.69177 76.1057 0.962492C77.75 -0.296669 79.2463 -0.307594 80.8659 0.987075C90.7753 8.91897 100.679 16.8582 110.578 24.8046C111.282 25.37 111.674 26.1129 111.992 26.9105L112 77.4763Z" fill="url(#paint0_linear_330_1284)"/>
<path d="M0.0228591 52.0828C0.0228591 44.1263 0.0447827 36.1698 0.00367605 28.2161C-0.0259281 27.4939 0.123641 26.7756 0.439133 26.1248C0.754625 25.474 1.2263 24.9107 1.81237 24.485C11.3856 16.8372 20.9498 9.16843 30.5048 1.47872C31.1817 0.932445 31.8394 0.331544 32.6971 0.113034C34.0126 -0.203804 35.1005 0.285111 36.1172 1.10452C44.3933 7.76178 52.6759 14.4081 60.9648 21.0435C62.4118 22.2043 63.8313 23.4034 65.3166 24.5124C66.6074 25.4738 67.0595 26.6974 67.0568 28.2816C67.0294 40.5947 67.0294 52.9086 67.0568 65.2234C67.0568 68.8206 67.0568 72.4178 67.0568 76.0123C67.0568 78.7191 65.8263 79.9482 63.1243 79.951C56.5984 79.951 50.0743 79.951 43.552 79.951C40.9294 79.951 39.6688 78.6781 39.6633 76.0642C39.6633 71.4209 39.6853 66.7776 39.6633 62.1151C39.6387 58.7146 37.5148 56.2345 34.3743 55.833C30.5377 55.3331 27.441 58.1328 27.4136 62.2134C27.3807 66.7912 27.4136 71.369 27.4136 75.944C27.4136 78.7819 26.2242 79.9564 23.3522 79.9591H4.08693C1.23139 79.9673 0.0228591 78.7655 0.0228591 75.9468C0.0192052 67.993 0.0192052 60.0384 0.0228591 52.0828Z" fill="url(#paint1_linear_330_1284)"/>
<path d="M89.5092 52.0773C89.5092 60.0365 89.5092 67.9939 89.5092 75.9495C89.5092 78.7928 88.3254 79.9646 85.4561 79.97C81.6661 79.97 77.876 79.9509 74.086 79.9864C73.2995 79.9864 73.1433 79.7734 73.3708 79.0578C73.6489 78.0396 73.7673 76.9846 73.7215 75.9303C73.7215 60.0137 73.7261 44.0999 73.7352 28.1888C73.7352 24.5069 72.3458 21.6143 69.4684 19.3282C63.2859 14.4199 57.1528 9.4461 50.9759 4.53237C50.2743 3.98609 50.0743 3.66379 50.9348 3.09294C51.7953 2.52208 52.5297 1.83104 53.3299 1.19737C55.3332 -0.395022 56.7061 -0.403216 58.6984 1.19737C65.1714 6.38697 71.6406 11.5766 78.1063 16.7662C81.3126 19.3391 84.4997 21.9394 87.7362 24.4714C88.3241 24.8953 88.7964 25.4589 89.1103 26.1109C89.4243 26.7629 89.5699 27.4828 89.5339 28.2051C89.4873 36.1643 89.5092 44.1208 89.5092 52.0773Z" fill="url(#paint2_linear_330_1284)"/>
</g>
<defs>
<linearGradient id="paint0_linear_330_1284" x1="56" y1="0" x2="56" y2="80" gradientUnits="userSpaceOnUse">
<stop stop-color="#00C7A8"/>
<stop offset="1" stop-color="#88E6B6"/>
</linearGradient>
<linearGradient id="paint1_linear_330_1284" x1="56" y1="0" x2="56" y2="80" gradientUnits="userSpaceOnUse">
<stop stop-color="#00C7A8"/>
<stop offset="1" stop-color="#88E6B6"/>
</linearGradient>
<linearGradient id="paint2_linear_330_1284" x1="56" y1="0" x2="56" y2="80" gradientUnits="userSpaceOnUse">
<stop stop-color="#00C7A8"/>
<stop offset="1" stop-color="#88E6B6"/>
</linearGradient>
</defs>
</svg>
