<svg width="48" height="48" viewBox="0 0 48 48" fill="none" xmlns="http://www.w3.org/2000/svg">
<g id="vuesax/bulk/building-4">
<g id="building-4">
<path id="Vector" opacity="0.4" d="M4.2002 44V12.0601C4.2002 8.04006 6.2003 6.02002 10.1803 6.02002H22.6403C26.6203 6.02002 28.6002 8.04006 28.6002 12.0601V44" fill="#00C7A8"/>
<g id="Group">
<path id="Vector_2" d="M21.4996 18H11.5996C10.7796 18 10.0996 17.32 10.0996 16.5C10.0996 15.68 10.7796 15 11.5996 15H21.4996C22.3196 15 22.9996 15.68 22.9996 16.5C22.9996 17.32 22.3196 18 21.4996 18Z" fill="#00C7A8"/>
</g>
<g id="Group_2">
<path id="Vector_3" d="M21.4996 25.5H11.5996C10.7796 25.5 10.0996 24.82 10.0996 24C10.0996 23.18 10.7796 22.5 11.5996 22.5H21.4996C22.3196 22.5 22.9996 23.18 22.9996 24C22.9996 24.82 22.3196 25.5 21.4996 25.5Z" fill="#00C7A8"/>
</g>
<g id="Group_3">
<path id="Vector_4" d="M16.5 45.5C15.68 45.5 15 44.82 15 44V36.5C15 35.68 15.68 35 16.5 35C17.32 35 18 35.68 18 36.5V44C18 44.82 17.32 45.5 16.5 45.5Z" fill="#00C7A8"/>
</g>
<path id="Vector_5" d="M46 42.5H41.46V36.5C43.36 35.88 44.74 34.1 44.74 32V28C44.74 25.38 42.6 23.24 39.98 23.24C37.36 23.24 35.22 25.38 35.22 28V32C35.22 34.08 36.5799 35.84 38.4399 36.48V42.5H2C1.18 42.5 0.5 43.18 0.5 44C0.5 44.82 1.18 45.5 2 45.5H39.86C39.9 45.5 39.92 45.52 39.96 45.52C40 45.52 40.0201 45.5 40.0601 45.5H46C46.82 45.5 47.5 44.82 47.5 44C47.5 43.18 46.82 42.5 46 42.5Z" fill="#00C7A8"/>
</g>
</g>
</svg>
