<svg width="48" height="48" viewBox="0 0 48 48" fill="none" xmlns="http://www.w3.org/2000/svg">
<g id="vuesax/bulk/house">
<g id="house">
<g id="Group">
<path id="Vector" d="M44 45.5H4C3.18 45.5 2.5 44.82 2.5 44C2.5 43.18 3.18 42.5 4 42.5H44C44.82 42.5 45.5 43.18 45.5 44C45.5 44.82 44.82 45.5 44 45.5Z" fill="#00C7A8"/>
</g>
<path id="Vector_2" opacity="0.4" d="M42.0004 19.96V44H5.90039L6.00039 19.94C6.00039 18.72 6.56039 17.5601 7.54039 16.8001L21.5404 5.92006C22.9804 4.78006 25.0204 4.78006 26.4604 5.92006L29.1404 8.00002L38.0004 14.88L40.4604 16.8001C41.4404 17.5601 42.0004 18.72 42.0004 19.96Z" fill="#00C7A8"/>
<path id="Vector_3" d="M26 34H22C20.34 34 19 35.34 19 37V44H29V37C29 35.34 27.66 34 26 34Z" fill="#00C7A8"/>
<path id="Vector_4" d="M19 27.5H15C13.9 27.5 13 26.6 13 25.5V22.5C13 21.4 13.9 20.5 15 20.5H19C20.1 20.5 21 21.4 21 22.5V25.5C21 26.6 20.1 27.5 19 27.5Z" fill="#00C7A8"/>
<path id="Vector_5" d="M33 27.5H29C27.9 27.5 27 26.6 27 25.5V22.5C27 21.4 27.9 20.5 29 20.5H33C34.1 20.5 35 21.4 35 22.5V25.5C35 26.6 34.1 27.5 33 27.5Z" fill="#00C7A8"/>
<path id="Vector_6" d="M37.9996 14.88L29.1396 8H35.9596C37.0596 8 37.9596 8.87998 37.9596 9.97998L37.9996 14.88Z" fill="#00C7A8"/>
</g>
</g>
</svg>
